<?xml version="1.0" encoding="UTF-8"?>
<svg xmlns="http://www.w3.org/2000/svg" width="512" height="512" viewBox="0 0 512 512"><g><path d="M335.2,323.882,193.775,182.461a8,8,0,1,0-11.314,11.313L323.882,335.2A8,8,0,0,0,335.2,323.882Z"/><path d="M496,56a8,8,0,0,0,8-8V16a8,8,0,0,0-8-8H464a8,8,0,0,0-8,8v8H280V16a8,8,0,0,0-8-8H240a8,8,0,0,0-8,8v8H56V16a8,8,0,0,0-8-8H16a8,8,0,0,0-8,8V48a8,8,0,0,0,8,8h8V232H16a8,8,0,0,0-8,8v32a8,8,0,0,0,8,8h8V456H16a8,8,0,0,0-8,8v32a8,8,0,0,0,8,8H48a8,8,0,0,0,8-8v-8H232v8a8,8,0,0,0,8,8h32a8,8,0,0,0,8-8v-8H456v8a8,8,0,0,0,8,8h32a8,8,0,0,0,8-8V464a8,8,0,0,0-8-8h-8V280h8a8,8,0,0,0,8-8V240a8,8,0,0,0-8-8h-8V56ZM248,24h16V40H248ZM24,24H40V40H24Zm0,224H40v16H24ZM40,488H24V472H40Zm224,0H248V472h16Zm192-24v8H280v-8a8,8,0,0,0-8-8H240a8,8,0,0,0-8,8v8H56v-8a8,8,0,0,0-8-8H40V280h8a8,8,0,0,0,8-8V240a8,8,0,0,0-8-8H40V56h8a8,8,0,0,0,8-8V40H232v8a8,8,0,0,0,8,8h32a8,8,0,0,0,8-8V40H456v8a8,8,0,0,0,8,8h8V232h-8a8,8,0,0,0-8,8v32a8,8,0,0,0,8,8h8V456h-8A8,8,0,0,0,456,464Zm32,24H472V472h16Zm0-224H472V248h16ZM472,40V24h16V40Z"/><path d="M434.19,388.94,306.01,260.75l12.24-10.96a7.008,7.008,0,0,0,.92-.97l39.01-48.91a7.974,7.974,0,0,0,10.6-.63l16.97-16.97a7.933,7.933,0,0,0,1.9-8.27l29.54-12.66a7.989,7.989,0,0,0,4.55-5.19l17.68-62.93a8,8,0,0,0-2.05-7.82L426.06,74.13a8,8,0,0,0-7.82-2.05L355.31,89.76a7.989,7.989,0,0,0-5.19,4.55l-12.66,29.54a7.976,7.976,0,0,0-8.27,1.9l-16.98,16.97a7.987,7.987,0,0,0-.62,10.6l-48.91,39.01a7.578,7.578,0,0,0-.97.91l-10.96,12.25L142.86,97.61a7.7,7.7,0,0,0-2.05-1.48c-.01-.01-.02-.02-.03-.02L95.53,73.48a8.018,8.018,0,0,0-9.24,1.5L74.98,86.29a8.018,8.018,0,0,0-1.5,9.24l22.63,45.25a.435.435,0,0,0,.04.07,7.716,7.716,0,0,0,1.46,2.01L207.99,253.25,78.76,397.63a24.019,24.019,0,0,0,.91,32.98l1.23,1.22a24.013,24.013,0,0,0,32.97.91L258.25,303.51,388.94,434.19a28.017,28.017,0,0,0,39.59,0l5.66-5.66a27.993,27.993,0,0,0,0-39.59ZM363.32,104.13l54.74-15.38,4.69,4.69-15.38,54.74-31.1,13.33-7.49-7.48,6.62-6.62a24.06,24.06,0,1,0-11.28-11.34l-6.65,6.65-7.48-7.49Zm16.78,15.96a8.005,8.005,0,1,1,0,11.31A7.943,7.943,0,0,1,380.1,120.09Zm-45.26,22.63,33.94,33.94-5.65,5.65-33.94-33.94Zm-61.66,61.7,49.75-39.68,23.83,23.83-39.68,49.75-12.4,11.1-32.6-32.6ZM94.14,101.07l-3.77-7.54,3.16-3.16,7.54,3.77Zm7.55,15.09,14.47-14.47,7.54,3.77L105.46,123.7Zm1.5,304.66a7.99,7.99,0,0,1-10.98-.31l-1.22-1.21a8,8,0,0,1-.31-10.99L219.33,264.58l27.59,27.59Zm265.95-29.06L114.58,137.21l22.63-22.63L391.76,369.14Zm16.97,16.98-5.66-5.66,22.63-22.63,5.66,5.66Zm36.77,8.48-5.66,5.66a12.011,12.011,0,0,1-16.97,0l-2.83-2.83,22.63-22.63,2.83,2.83A12.011,12.011,0,0,1,422.88,417.22Z"/></g></svg>
