<svg id="Capa_1" enable-background="new 0 0 512 512" height="512" viewBox="0 0 512 512" width="512" xmlns="http://www.w3.org/2000/svg"><g><path d="m461.35 403.686c-.963 0-1.919.033-2.87.086v-100.864c28.67-3.694 50.9-28.243 50.9-57.902v-101.96c0-29.658-22.229-54.206-50.897-57.901v-17.573c0-13.14-10.694-23.83-23.84-23.83h-31.44c-13.146 0-23.84 10.69-23.84 23.83v17.074h-68.216l-22.989-39.816c-6.712-11.626-18.734-18.566-32.158-18.566s-25.446 6.94-32.158 18.566l-22.988 39.816h-68.216v-17.074c0-13.14-10.695-23.83-23.84-23.83h-31.44c-13.146 0-23.84 10.69-23.84 23.83v17.572c-28.669 3.696-50.898 28.244-50.898 57.902v101.96c0 29.66 22.23 54.208 50.9 57.902v100.864c-.951-.053-1.908-.086-2.87-.086-27.929 0-50.65 22.722-50.65 50.65v23.9c0 4.142 3.358 7.5 7.5 7.5h371.2c4.142 0 7.5-3.358 7.5-7.5s-3.358-7.5-7.5-7.5h-363.7v-16.4c0-19.657 15.993-35.65 35.65-35.65 15.533 0 29.169 9.927 33.932 24.701.999 3.099 3.883 5.199 7.138 5.199 3.256 0 6.139-2.1 7.138-5.199 4.763-14.774 18.399-24.701 33.932-24.701s29.169 9.927 33.932 24.701c.999 3.099 3.883 5.199 7.138 5.199s6.139-2.1 7.138-5.199c4.763-14.774 18.399-24.701 33.932-24.701s29.169 9.927 33.932 24.701c.999 3.099 3.883 5.199 7.138 5.199s6.139-2.1 7.138-5.199c4.763-14.774 18.399-24.701 33.932-24.701s29.169 9.927 33.932 24.701c.999 3.099 3.883 5.199 7.138 5.199s6.139-2.1 7.138-5.199c4.763-14.774 18.399-24.701 33.932-24.701s29.169 9.927 33.932 24.701c.999 3.099 3.882 5.199 7.138 5.199 3.255 0 6.139-2.1 7.138-5.199 4.763-14.774 18.399-24.701 33.932-24.701 19.657 0 35.65 15.993 35.65 35.65v16.4h-88.32c-4.142 0-7.5 3.358-7.5 7.5s3.358 7.5 7.5 7.5h95.82c4.142 0 7.5-3.358 7.5-7.5v-23.9c0-27.928-22.721-50.65-50.65-50.65zm-10.37-115.28h-23.239l66.639-113.563v70.163c0 23.931-19.469 43.4-43.4 43.4zm43.4-145.36v2.158l-84.031 143.202h-49.679l108.426-184.783c14.907 6.878 25.284 21.957 25.284 39.423zm-228.213 75.996-40.696 69.365h-49.689l40.696-69.365zm17.391 0h40.865c13.424 0 25.446-6.941 32.158-18.567 6.712-11.625 6.712-25.507 0-37.132l-20.006-34.651 17.04-29.045h97.365c1.006 0 2.001.047 2.991.115l-110.692 188.644h-100.418zm110.804-151.47c0-4.869 3.966-8.83 8.84-8.83h31.44c4.875 0 8.84 3.961 8.84 8.83v17.074h-49.12zm-58.138 32.074-8.275 14.104-8.143-14.104zm-99.392-47.316c4.001-6.93 11.167-11.066 19.168-11.066s15.167 4.137 19.168 11.066l68.423 118.512c4 6.929 4 15.203 0 22.132-4.001 6.93-11.167 11.067-19.168 11.067h-136.846c-8.001 0-15.167-4.137-19.168-11.067-4-6.929-4-15.203 0-22.132zm-159.475 6.413h31.44c4.875 0 8.84 3.961 8.84 8.83v17.074h-49.12v-17.075c.001-4.868 3.966-8.829 8.84-8.829zm-16.337 40.903h23.241l-66.641 113.566v-70.166c0-23.931 19.469-43.4 43.4-43.4zm-43.4 145.36v-2.155l84.033-143.205h49.679l-22.99 39.174c-2.097 3.573-.9 8.168 2.672 10.265 1.192.7 2.499 1.033 3.789 1.033 2.573 0 5.079-1.325 6.475-3.705l27.447-46.767h23.469l-36.775 63.696c-6.712 11.625-6.712 25.507 0 37.132 6.712 11.626 18.734 18.567 32.158 18.567h11.51l-40.696 69.365h-97.371c-1.005 0-1.999-.047-2.987-.114l68.066-116c2.096-3.572.899-8.168-2.673-10.264-3.571-2.096-8.167-.9-10.264 2.673l-70.254 119.73c-14.91-6.878-25.288-21.958-25.288-39.425zm74.1 179.64c-5.825-8.082-13.903-14.243-23.2-17.73v-103.51h49.12v102.579c-10.439 3.252-19.534 9.801-25.92 18.661zm246.42 0c-9.328-12.941-24.434-20.96-41.07-20.96s-31.743 8.018-41.07 20.96c-9.327-12.942-24.434-20.96-41.07-20.96s-31.743 8.019-41.07 20.96c-9.327-12.942-24.434-20.96-41.07-20.96-.05 0-.1.004-.15.004v-100.284h246.72v100.284c-.05 0-.1-.004-.15-.004-16.636 0-31.743 8.018-41.07 20.96zm82.14 0c-6.385-8.86-15.481-15.409-25.92-18.661v-102.579h49.12v103.509c-9.297 3.488-17.376 9.649-23.2 17.731z"/><path d="m256 193.537c12.407 0 22.5-10.093 22.5-22.5 0-5.758-2.177-11.016-5.747-15 3.571-3.984 5.747-9.242 5.747-15v-47.569c0-12.407-10.093-22.5-22.5-22.5s-22.5 10.093-22.5 22.5v47.568c0 5.758 2.177 11.016 5.747 15-3.571 3.984-5.747 9.242-5.747 15 0 12.407 10.093 22.501 22.5 22.501zm0-15c-4.136 0-7.5-3.364-7.5-7.5s3.364-7.5 7.5-7.5 7.5 3.364 7.5 7.5-3.364 7.5-7.5 7.5zm-7.5-85.069c0-4.136 3.364-7.5 7.5-7.5s7.5 3.364 7.5 7.5v47.568c0 4.136-3.364 7.5-7.5 7.5s-7.5-3.364-7.5-7.5z"/></g></svg>