<?xml version="1.0" encoding="UTF-8"?>
<svg xmlns="http://www.w3.org/2000/svg" width="512" height="512" viewBox="0 0 512 512"><g><path d="M456,40H56A48.051,48.051,0,0,0,8,88V360a48.051,48.051,0,0,0,48,48H180.18l-9.6,24H144a8,8,0,0,0-8,8v24a8,8,0,0,0,8,8H368a8,8,0,0,0,8-8V440a8,8,0,0,0-8-8H341.42l-9.6-24H456a48.051,48.051,0,0,0,48-48V88A48.051,48.051,0,0,0,456,40ZM360,448v8H152v-8ZM187.82,432l9.6-24H314.58l9.6,24ZM456,392H56a32.058,32.058,0,0,1-30.99-24H486.99A32.058,32.058,0,0,1,456,392Zm32-40H24V88A32.03,32.03,0,0,1,56,56H456a32.036,32.036,0,0,1,32,32Z"/><path d="M335.93,170.72c.03-.9.07-1.81.07-2.72a80,80,0,0,0-160,0c0,.91.04,1.82.07,2.72A79.964,79.964,0,1,0,256,309.24a79.963,79.963,0,1,0,79.93-138.52ZM256,104a64.061,64.061,0,0,1,63.83,59.63A79.84,79.84,0,0,0,256,170.76a79.84,79.84,0,0,0-63.83-7.13A64.061,64.061,0,0,1,256,104Zm0,86.09a64.057,64.057,0,0,1,22.82,37.69,63.811,63.811,0,0,1-45.64,0A64.057,64.057,0,0,1,256,190.09Zm-37.43,29.78a64.159,64.159,0,0,1-25.39-39.65,63.8,63.8,0,0,1,48.46,1.16A80.023,80.023,0,0,0,218.57,219.87Zm51.79-38.49a63.8,63.8,0,0,1,48.46-1.16,64.159,64.159,0,0,1-25.39,39.65A80.023,80.023,0,0,0,270.36,181.38ZM216,304a63.971,63.971,0,0,1-37.43-115.87,80.33,80.33,0,0,0,37.5,49.15c-.03.9-.07,1.81-.07,2.72a79.758,79.758,0,0,0,25.64,58.62A63.639,63.639,0,0,1,216,304Zm40-14.09a63.924,63.924,0,0,1-23.83-45.54,80.034,80.034,0,0,0,47.66,0A63.924,63.924,0,0,1,256,289.91ZM296,304a63.639,63.639,0,0,1-25.64-5.38A79.758,79.758,0,0,0,296,240c0-.91-.04-1.82-.07-2.72a80.33,80.33,0,0,0,37.5-49.15A63.971,63.971,0,0,1,296,304Z"/><path d="M48,128H80a8,8,0,0,0,8-8V88a8,8,0,0,0-8-8H48a8,8,0,0,0-8,8v32A8,8,0,0,0,48,128Zm8-32H72v16H56Z"/><path d="M104,112h28.687l21.656,21.657a8,8,0,0,0,11.314-11.314l-24-24A8,8,0,0,0,136,96H104a8,8,0,0,0,0,16Z"/><path d="M432,152h32a8,8,0,0,0,8-8V112a8,8,0,0,0-8-8H432a8,8,0,0,0-8,8v32A8,8,0,0,0,432,152Zm8-32h16v16H440Z"/><path d="M352,160a7.974,7.974,0,0,0,5.657-2.343L379.313,136H408a8,8,0,0,0,0-16H376a8,8,0,0,0-5.657,2.343l-24,24A8,8,0,0,0,352,160Z"/></g></svg>
