<svg id="Layer_1" enable-background="new 0 0 128 128" height="512" viewBox="0 0 128 128" width="512" xmlns="http://www.w3.org/2000/svg"><g><path d="m128 64c0-35.2-28.6-64-64-64-35.5 0-64 29-64 64 0 35.3 28.7 64 63.9 64 35.3 0 64.1-28.7 64.1-64zm-20.7 42.1c-4.7-4.4-10.1-8-16-10.8 1.1-4.1 2-8.3 2.6-12.5h14.1c1 0 1.7-.8 1.7-1.7v-15.3h14.6c-.3 15.1-6.4 29.5-17 40.3zm-43.3 18.4c-9.4 0-18.1-10.6-23.2-27.2 14.8-6.1 31.5-6.1 46.4 0-5.1 16.5-13.8 27.2-23.2 27.2zm-24.1-30.7c-1-3.7-1.7-7.4-2.3-11.1h52.9c-.6 3.7-1.3 7.4-2.3 11.1-16.1-6.5-33.5-6-48.3 0zm-18.2-45h84.6v30.5h-84.6zm18.2-14.6c15.2 6.2 32.6 6.4 48.3 0 1 3.7 1.7 7.4 2.3 11.1h-52.9c.5-3.8 1.3-7.5 2.3-11.1zm24.1-30.7c9.4 0 18.1 10.6 23.2 27.2-14.4 6-31.1 6.3-46.4 0 5.1-16.5 13.8-27.2 23.2-27.2zm60.4 58.8h-14.6v-15.3c0-1-.8-1.7-1.7-1.7h-14.1c-.6-4.2-1.5-8.4-2.6-12.5 5.8-2.8 11.2-6.4 16-10.8 10.5 10.7 16.6 25.1 17 40.3zm-19.6-42.8c-4.3 4-9.2 7.3-14.4 9.8-3.5-11.1-8.5-19.7-14.5-24.6 10.8 2.2 20.8 7.3 28.9 14.8zm-67.2 9.8c-5.3-2.6-10.1-5.9-14.4-9.8 8.1-7.5 18.1-12.6 28.9-14.8-6 4.9-11 13.5-14.5 24.6zm-16.9-7.4c4.7 4.4 10.1 8 16 10.8-1.1 4.1-2 8.3-2.6 12.5h-14.2c-1 0-1.7.8-1.7 1.8v15.2h-14.6c.4-15.1 6.5-29.5 17.1-40.3zm-17.1 43.9h14.6v15.2c0 1 .8 1.7 1.7 1.7h14.1c.6 4.2 1.5 8.4 2.6 12.5-5.8 2.8-11.2 6.4-16 10.8-10.5-10.7-16.6-25.1-17-40.2zm19.6 42.7c4.3-4 9.2-7.3 14.4-9.8 3.5 11.1 8.5 19.7 14.5 24.6-10.8-2.2-20.8-7.3-28.9-14.8zm67.2-9.8c5.3 2.6 10.1 5.9 14.4 9.8-8.1 7.5-18.1 12.6-28.9 14.7 6-4.8 11.1-13.4 14.5-24.5z"/><path d="m57.6 70.4c.7 1.5 2.8 1.3 3.3-.2l3.1-7.3 3.1 7.5c.6 1.5 2.9 1.4 3.3-.2l4.7-11.2c.3-1-.1-2-1.1-2.3-.8-.3-1.8.1-2.2.9l-3.1 7.6-3.1-7.4c-.5-1.5-2.7-1.6-3.3-.1l-3.1 7.6-3.1-7.5c-.4-.9-1.4-1.3-2.3-1-.9.4-1.3 1.4-1 2.3z"/><path d="m84.6 70.4c.7 1.5 2.8 1.4 3.3-.2l3.1-7.3 3.1 7.5c.6 1.5 2.9 1.4 3.3-.2l4.7-11.2c.3-.9-.2-1.9-1.1-2.2-.8-.3-1.8.1-2.2.9l-3.1 7.6-3.1-7.4c-.5-1.5-2.7-1.6-3.3-.1l-3.1 7.6-3.1-7.5c-.4-.9-1.4-1.3-2.3-.9s-1.3 1.4-.9 2.3z"/><path d="m34 70.2 3.1-7.3 3.1 7.6c.7 1.5 2.8 1.3 3.3-.2l4.7-11.2c.3-.9-.1-1.9-1-2.2s-1.8.1-2.2.9l-3.1 7.6-3.1-7.4c-.5-1.5-2.6-1.6-3.3-.1l-3.1 7.6-3.1-7.5c-.4-.9-1.4-1.3-2.3-1s-1.3 1.4-1 2.3l4.8 11.4c.5 1.2 2.7 1.1 3.2-.5z"/></g></svg>