<?xml version="1.0" encoding="UTF-8"?>
<svg xmlns="http://www.w3.org/2000/svg" width="512" height="512" viewBox="0 0 512 512"><g><path d="M456,40H56A48.051,48.051,0,0,0,8,88V360a48.051,48.051,0,0,0,48,48H180.18l-9.6,24H144a8,8,0,0,0-8,8v24a8,8,0,0,0,8,8H368a8,8,0,0,0,8-8V440a8,8,0,0,0-8-8H341.42l-9.6-24H456a48.051,48.051,0,0,0,48-48V88A48.051,48.051,0,0,0,456,40ZM360,448v8H152v-8ZM187.82,432l9.6-24H314.58l9.6,24ZM456,392H56a32.058,32.058,0,0,1-30.99-24H486.99A32.058,32.058,0,0,1,456,392Zm32-40H24V88A32.036,32.036,0,0,1,56,56H456a32.036,32.036,0,0,1,32,32Z"/><path d="M56,320H232a8,8,0,0,0,8-8V88a8,8,0,0,0-8-8H56a8,8,0,0,0-8,8V312A8,8,0,0,0,56,320Zm98.174-120L224,111.13V288.87ZM215.54,304H72.46L144,212.948ZM144,187.052,72.46,96H215.54ZM133.826,200,64,288.87V111.13Z"/><path d="M440,80H280a8,8,0,0,0-8,8v96a8,8,0,0,0,8,8H440a8,8,0,0,0,8-8V88A8,8,0,0,0,440,80Zm-8,96H288V157.66c12.76-4.04,37-8.71,51.56,1,9.27,6.18,17.97,8.41,25.52,8.41,11.44,0,20.28-5.11,24.58-9.41a8.132,8.132,0,0,0,1.69-2.49c2.18-5.05,10.44-19.55,19.44-20.05,6.16-.31,13.67,6.42,21.21,19.06Zm0-47.68c-7.08-6.53-14.49-9.6-22.15-9.17-18.12,1.04-29.26,21.36-32.4,27.94-3.24,2.49-13.64,8.5-29.01-1.75-11.67-7.77-27.37-10.21-46.66-7.25A130,130,0,0,0,288,141.03V96H432Z"/><path d="M280,232h25.376a24,24,0,0,0,45.248,0H440a8,8,0,0,0,0-16H350.624a24,24,0,0,0-45.248,0H280a8,8,0,0,0,0,16Zm48-16a8,8,0,1,1-8,8A8.009,8.009,0,0,1,328,216Z"/><path d="M280,312h25.376a24,24,0,0,0,45.248,0H440a8,8,0,0,0,0-16H350.624a24,24,0,0,0-45.248,0H280a8,8,0,0,0,0,16Zm48-16a8,8,0,1,1-8,8A8.009,8.009,0,0,1,328,296Z"/><path d="M280,272h89.376a24,24,0,0,0,45.248,0H440a8,8,0,0,0,0-16H414.624a24,24,0,0,0-45.248,0H280a8,8,0,0,0,0,16Zm112-16a8,8,0,1,1-8,8A8.009,8.009,0,0,1,392,256Z"/></g></svg>
